<?xml version="1.0" encoding="iso-8859-1"?>
<!-- Generator: Adobe Illustrator 19.0.0, SVG Export Plug-In . SVG Version: 6.00 Build 0)  -->
<svg version="1.1" id="Capa_1" xmlns="http://www.w3.org/2000/svg" xmlns:xlink="http://www.w3.org/1999/xlink" x="0px" y="0px"
	 viewBox="0 0 511.998 511.998" style="enable-background:new 0 0 511.998 511.998;" xml:space="preserve">
<path style="fill:#E24242;" d="M131.428,450.131c4.933-0.247,9.866-0.494,14.799-0.741c13.271-0.665,26.542-1.329,39.813-1.994
	c4.023-0.201,8.443-0.571,11.288-3.423c2.603-2.609,3.147-6.573,3.552-10.236c0.708-6.392,2.59-14.756,0.831-21.06
	c-0.728-2.609-1.481-4.65-1.676-7.45c-0.252-3.611-0.367-7.231-0.366-10.85c0.003-14.548,1.879-29.016,4.154-43.36
	c1.658-10.457,5.404-22.228,4.894-32.785c-0.523-10.834,0.564-21.894,0.981-32.778c0.888-23.141,1.298-46.334-0.057-69.466
	c-0.42-7.163-1.161-14.302-1.833-21.444c-1.106-11.755-2.023-23.615-0.982-35.41c0.251-2.842,0.977-5.729,1.076-8.568
	c0.066-1.889-0.468-3.743-0.497-5.645c-0.092-5.953-0.487-11.843-1.06-17.77c-1.46-15.101-3.011-30.546-9.465-44.276
	c-9.768-20.784-31.015-35.705-53.881-37.84c-2.209-0.206-4.429-0.293-6.647-0.263c-11.681,0.156-23.267,3.528-33.325,9.441
	c-5.03,2.956-9.687,6.553-13.783,10.71c-1.953,1.982-3.583,4.608-5.794,6.283c-2.121,1.606-4.016,2.896-5.851,4.925
	c-4.639,5.127-7.024,12.039-9.559,18.344c-4.107,10.215-7.803,20.595-11.076,31.106c-2.966,9.526-3.826,19.773-5.389,29.648
	c-0.351,2.217-0.702,4.434-1.053,6.651c-1.344,8.488-2.687,16.976-4.031,25.464c-0.941,5.942-2.692,12.793-1.375,18.788
	c1.326,6.04,0.123,12.91-0.44,18.993c-0.668,7.226-1.337,14.452-2.005,21.679c-0.607,7.285-1.458,14.553-2.021,21.842
	c-0.439,5.685,0.83,11.489,0.753,17.287c-0.201,15.047,0.305,30.342-0.839,45.324c-0.543,7.116,0.6,14.577,0.776,21.776
	c0.193,7.86,0.13,15.724-0.044,23.584c-0.364,16.411-1.226,32.81-1.347,49.227c-0.054,7.359,0.53,15.771,6.316,20.319
	c3.235,2.543,7.479,3.309,11.536,3.996c7.196,1.218,14.439,2.413,21.752,2.553c7.109,0.136,14.318-0.701,21.432-1.057
	C111.133,451.147,121.281,450.639,131.428,450.131z"/>
<g>
	<path style="fill:#BEC9D2;" d="M217.372,148.246c1.123,0.259,2.308,0.43,3.529,0.524c7.882,0.605,15.77,1.127,23.662,1.56
		c6.231,0.342,9.916,0.517,15.346-2.204c12.227-6.127,16.267,12.562,16.552,20.54c0.276,7.736,0.553,15.472,0.829,23.208
		c0.021,0.602,0.048,1.224,0.308,1.768c0.693,1.449,2.618,1.693,4.224,1.74c4.986,0.148,9.971,0.296,14.957,0.444
		c0.697-7.803,1.395-15.607,2.092-23.41c0.699-7.828,1.373-15.909-1.06-23.382c8.314-3.375,14.586-11.341,15.916-20.214
		s-2.331-18.329-9.289-23.993c-3.269-2.661-7.538-5.066-8.113-9.241c-0.204-1.484,0.119-2.984,0.441-4.447
		c5.357-24.355,10.714-48.71,16.071-73.064c0.397-1.805,0.787-3.729,0.144-5.462c-1.36-3.665-6.186-4.293-10.095-4.34
		c-12.837-0.155-25.761-0.574-38.295-3.349c-2.689-0.595-5.403-1.303-8.152-1.143c-2.749,0.16-5.608,1.36-6.988,3.743
		c-1.534,2.649-0.905,5.97-0.213,8.952c5.619,24.236,12.392,48.204,20.287,71.797c1.25,3.737,2.535,7.797,1.275,11.531
		c-0.876,2.596-2.867,4.637-4.797,6.582c-2.444,2.463-4.888,4.926-7.332,7.389c-5.791,5.835-13.927,2.61-21.544,2.322
		c-4.495-0.17-9.008-0.423-13.505-0.148c-3.152,0.192-11.152,0.342-13.329,3.01c-1.643,2.013,0.297,7.241-0.055,9.939
		c-0.337,2.59-1.502,5.02-1.763,7.614C207.772,143.504,211.808,146.961,217.372,148.246z"/>
	<path style="fill:#BEC9D2;" d="M105.108,116.503c-1.659,8.105,0.111,17.283,6.142,22.946c2.357,2.214,5.233,3.798,8.172,5.148
		c3.745,1.72,7.711,3.111,11.826,3.347c5.648,0.324,11.193-1.54,16.366-3.831c3.942-1.745,7.862-3.825,10.713-7.059
		c2.776-3.148,4.355-7.205,5.162-11.324c1.715-8.754,0.007-18.217-5.053-25.564c-5.835-8.472-15.609-13.287-25.844-12.88
		c-10.208,0.406-14.128,4.344-19.808,12.529C109.275,104.869,106.351,110.433,105.108,116.503z"/>
</g>
<path style="fill:#637079;" d="M259.92,128.599c-0.308,4.742,0.148,9.605,1.981,13.989c1.833,4.384,5.142,8.258,9.49,10.177
	c3.917,1.729,8.365,1.786,12.627,1.374c4.317-0.417,8.674-1.317,12.433-3.479c3.02-1.737,5.535-4.217,7.958-6.721
	c3.89-4.02,7.739-8.338,9.539-13.635c2.111-6.211,1.084-13.288-2.219-18.956s-8.733-9.951-14.814-12.411
	c-7.301-2.954-19.359-4.179-25.367,2.05C264.591,108.199,260.562,118.704,259.92,128.599z"/>
<g>
	<path style="fill:#A6B3BD;" d="M286.212,84.606c0.652,3.386,1.167,7.239-0.927,9.979c-2.402,3.144-7.048,3.29-10.965,2.731
		c-0.914-0.13-1.904-0.325-2.509-1.023c-0.394-0.454-0.562-1.056-0.719-1.637c-6.79-25.07-13.579-50.141-20.369-75.212
		c-0.83-3.063-1.629-6.467-0.176-9.288c1.19-2.311,3.625-3.667,5.958-4.813c0.827-0.406,1.682-0.809,2.6-0.889
		c1.377-0.119,2.694,0.499,4.009,0.925c3.121,1.012,11.491-0.939,13.28,1.871c1.048,1.646-0.153,6.363-0.201,8.293
		c-0.08,3.234-0.025,6.471,0.135,9.701c0.638,12.819,2.971,25.479,5.527,38.032C283.304,70.388,284.839,77.481,286.212,84.606z"/>
	<path style="fill:#A6B3BD;" d="M256.595,131.794c1.161-0.04,2.553,0.042,3.138,1.045c0.314,0.538,0.292,1.201,0.26,1.823
		c-0.169,3.34-0.337,6.679-0.506,10.019c-0.028,0.558-0.06,1.133-0.295,1.64c-0.712,1.54-2.79,1.723-4.486,1.682
		c-13.824-0.328-27.647-0.661-41.47-0.999c-0.752-0.018-1.55-0.051-2.174-0.471c-0.524-0.353-0.847-0.928-1.151-1.483
		c-1.534-2.801-4.904-8.963-1.076-11.312c3.17-1.944,10.673-0.685,14.292-0.808C234.283,132.552,245.439,132.173,256.595,131.794z"
		/>
	<path style="fill:#A6B3BD;" d="M125.02,116.462c-0.476,4.308-0.301,9.17,2.73,12.269c3.436,3.513,9.725,3.853,11.951,8.233
		c1.561,3.07,0.192,7.078-2.536,9.182c-2.727,2.103-6.454,2.539-9.846,1.944c-3.392-0.595-6.543-2.111-9.644-3.61
		c-2.269-1.097-4.555-2.205-6.554-3.741c-5.822-4.474-8.507-12.264-7.928-19.583c0.579-7.319,4.073-14.165,8.669-19.89
		c2.358-2.937,5.016-5.63,7.874-8.083c2.287-1.963,4.807-3.824,7.751-4.472c3.714-0.817,8.302,0.312,11.504,2.263
		c-0.543,1.741-3.796,3.246-5.193,4.673c-1.777,1.814-3.235,3.922-4.435,6.155C126.94,106.312,125.581,111.389,125.02,116.462z"/>
	<path style="fill:#A6B3BD;" d="M286.36,196.837c-2.798-1.813-5.936-3.704-9.23-3.193c-0.138-11.723-0.863-23.44-2.171-35.09
		c2.136-0.396,9.858-3.162,11.007-1.548c1.352,1.898-0.504,10.909-0.547,13.443c-0.076,4.461-0.032,8.924,0.13,13.382
		C285.612,185.589,285.05,195.989,286.36,196.837z"/>
</g>
<path style="fill:#525D65;" d="M269.66,117.365c-0.229,4.755,0.489,9.965,3.896,13.29c1.557,1.518,3.546,2.507,5.544,3.366
	c5.205,2.237,10.716,3.759,16.332,4.51c1.361,0.182,2.91,0.427,3.657,1.579c0.454,0.701,0.493,1.591,0.417,2.423
	c-0.558,6.048-6.513,10.491-12.535,11.284c-6.022,0.794-12.035-1.227-17.678-3.474c-3.794-1.511-7.837-3.405-9.671-7.054
	c-1.074-2.137-1.234-4.606-1.286-6.998c-0.136-6.283,0.336-12.579,1.408-18.771c0.686-3.965,1.661-7.988,3.912-11.324
	c1.676-2.484,6.118-7.25,7.801-2.629C272.786,107.213,269.847,113.488,269.66,117.365z"/>
<path style="fill:#C13636;" d="M87.419,165.749c0.166,9.499,0.608,18.991,1.256,28.469c0.714,10.442,1.677,20.866,2.794,31.273
	c1.105,10.301,3.307,20.836,3.716,31.174c0.744,18.819,5.379,37.679,12.78,55.161c6.992,16.515,17.045,31.901,30.425,43.843
	c8.356,7.458,17.872,13.474,26.993,19.976c9.12,6.502,18,13.643,24.492,22.77c4.317,6.068,7.503,13.089,8.637,20.48
	c1.085,7.07-0.909,12.93-2.891,19.626c-0.378,1.278-0.818,2.589-1.721,3.57c-1.007,1.094-2.463,1.643-3.881,2.089
	c-7.427,2.337-15.285,2.86-23.058,3.315c-37.503,2.196-75.077,3.184-112.644,2.962c-3.777-0.022-8.225-0.416-10.185-3.645
	c-0.812-1.337-1.024-2.942-1.21-4.495c-1.88-15.744-2.778-31.595-2.974-47.447c-0.293-23.715,0.982-47.421,2.849-71.055
	c0.935-11.837,2.022-23.661,3.14-35.483c0.932-9.844-1.033-20.058-1.278-30.057c-1.132-46.152,1.327-92.792,12.958-137.647
	c5.637-21.74,14.309-46.261,31.846-61.407c3.055-2.639,8.283-3.573,10.189,1.149c1.808,4.477-2.65,13.288-3.738,17.844
	c-3.198,13.394-5.374,27.022-6.732,40.721C87.639,134.486,87.147,150.13,87.419,165.749z"/>
<g>
	<path style="fill:#FFC94E;" d="M42.911,250.697c-0.027,1.406,0.127,3.109,1.384,3.74c0.53,0.266,1.148,0.269,1.741,0.269
		c20.25,0.004,40.375,3.215,60.618,3.772c7.452,0.205,14.909,0.05,22.362-0.106c25.16-0.524,50.32-1.048,75.48-1.572
		c0.735-0.015,1.55-0.063,2.068-0.584c0.517-0.52,0.561-1.333,0.572-2.066c0.159-10.569,0.023-21.143-0.409-31.705
		c-0.019-0.462-0.052-0.962-0.352-1.314c-0.343-0.403-0.922-0.487-1.448-0.544c-6.735-0.73-13.486-1.461-20.26-1.466
		c-6.402-0.005-12.796,0.638-19.197,0.521c-4.707-0.086-9.396-0.582-14.099-0.784c-14.033-0.603-28.059,1.415-42.103,1.228
		c-12.917-0.172-25.769-2.208-38.687-2.09c-5.31,0.048-10.68,0.328-15.964,0.864c-2.88,0.292-6.136,0.56-8.138,2.925
		c-2.526,2.984-2.265,8.237-2.604,11.858C43.343,239.313,43.022,245.003,42.911,250.697z"/>
	<path style="fill:#FFC94E;" d="M40.031,326.05c-0.117,2.792-0.021,6.059,2.229,7.717c1.292,0.953,2.988,1.104,4.589,1.219
		c37.978,2.715,76.096,3.472,114.151,2.264c6.047-0.192,12.106-0.433,18.144-0.042c6.677,0.433,13.281,1.636,19.945,2.24
		c0.93,0.084,1.914,0.147,2.752-0.266c1.217-0.601,1.766-2.009,2.178-3.302c3.017-9.474,4.31-19.494,3.798-29.423
		c-0.043-0.836-0.104-1.693-0.461-2.45c-0.822-1.743-2.914-2.438-4.811-2.778c-3.928-0.703-7.947-0.649-11.937-0.593
		c-39.19,0.552-78.38,1.103-117.57,1.655c-9.84,0.139-19.056-0.692-28.769-1.915c-2.792-0.352-2.638-0.696-3.243,2.032
		c-0.539,2.433-0.226,5.389-0.331,7.885C40.473,315.544,40.252,320.797,40.031,326.05z"/>
</g>
<g>
	<path style="fill:#F2AE40;" d="M96.293,256.318c-15.612-5.476-33.138,3.377-49.233-0.454c-0.486-0.116-1.005-0.265-1.314-0.658
		c-0.267-0.339-0.324-0.792-0.368-1.221c-1.226-11.878-0.252-23.98,2.859-35.508c0.007-0.027,19.361,1.533,21.278,1.578
		c3.557,0.083,7.115,0.077,10.671-0.019c2.41-0.065,6.246-0.994,8.549,0.043c4.112,1.851,2.633,11.719,3.112,15.658
		C92.695,242.714,94.182,249.614,96.293,256.318z"/>
	<path style="fill:#F2AE40;" d="M115.852,324.241c4.219,6.242,7.892,14.763-3.08,14.571c-21.46-0.377-42.788-1.413-64.271-0.779
		c-1.967,0.058-4.129,0.061-5.643-1.197c-3.178-2.64-1.309-13.475-1.032-17.24c0.481-6.532,1.664-13.013,3.535-19.29
		c10.638,1.553,21.404,2.01,32.145,1.921c5.374-0.044,10.787-0.113,16.15-0.479c3.834-0.262,5.412-3.197,8.45,0.062
		c1.82,1.952,2.174,1.27,3.23,4.077c0.882,2.344,1.85,4.6,3.054,6.801C110.593,316.714,113.286,320.446,115.852,324.241z"/>
</g>
<path style="fill:#FFC94E;" d="M266.467,237.732c-2.07,0.565-4.375-0.506-6.465-1.291c-3.218-1.209-6.8-1.732-10.109-0.799
	c-3.13,0.882-7.158,4.159-8.089,7.437c-1.215,4.28,3.377,8.474,3.537,12.707c0.07,1.871-0.553,3.687-1.081,5.483
	c-2.364,8.052-2.199,15.908-2.013,24.184c0.196,8.715-0.167,17.433-0.746,26.128c-2.51,37.645-10.139,75.86-1.943,112.688
	c1.308,5.875,3.267,12.056,7.991,15.785c3.734,2.947,8.622,3.896,13.317,4.661c33.218,5.416,67.193,6.174,100.62,2.247
	c2.993-0.352,6.08-0.773,8.665-2.323c5.019-3.008,6.805-9.324,7.87-15.078c2.643-14.287,3.467-28.841,4.285-43.348
	c1.739-30.837,3.477-61.674,5.216-92.511c0.524-9.293,1.048-18.622,0.284-27.899c-0.444-5.398-1.324-10.76-2.628-16.016
	c-0.489-1.972-1.072-3.996-2.381-5.55c-2.849-3.384-9.27-1.522-10.187-6.472c-0.465-2.508,0.616-5.004,1.399-7.432
	c1.794-5.563,2.076-11.606,0.808-17.312c-0.806-3.625-2.336-7.262-5.217-9.604c-2.881-2.343-7.348-3.003-10.302-0.752
	c-1.063,0.81-2.031,2-3.367,2.014c-1.069,0.011-1.964-0.752-2.799-1.419c-8.868-7.08-22.96-6.443-31.154,1.406
	c-5.256,5.035-7.881,12.127-10.782,18.802c-0.374,0.861-0.782,1.753-1.516,2.338c-1.741,1.386-4.263,0.435-6.35-0.336
	c-6.454-2.382-13.684-2.131-20.124,0.164c-3.415,1.217-6.564,3.013-9.392,5.276c-2.201,1.762-4.246,5.396-6.63,6.551
	C266.948,237.577,266.709,237.666,266.467,237.732z"/>
<path style="fill:#F2AE40;" d="M292.819,359.428c0.664,19.111,4.681,38.346,13.793,55.158c2.471,4.56,5.358,8.985,9.264,12.397
	c3.951,3.452,8.783,5.73,12.979,8.878c1.171,0.879,2.339,1.888,2.849,3.26c0.877,2.356-0.538,5.076-2.624,6.481
	c-2.085,1.405-4.673,1.793-7.17,2.089c-22.999,2.728-46.561,0.611-68.705-6.172c-2.17-0.665-4.365-1.392-6.215-2.707
	c-2.618-1.86-4.327-4.737-5.64-7.667c-6.524-14.558-4.852-31.281-3.56-47.181c1.554-19.123,2.373-38.305,2.454-57.491
	c0.089-20.924-0.686-42.024,3.11-62.601c0.361-1.956,0.824-4.024,2.225-5.436c0.965-0.972,2.272-1.52,3.571-1.954
	c7.95-2.656,16.605-1.876,24.898-0.658c6.351,0.933,12.484,2.592,18.206,5.543c5.771,2.977,12.019,5.088,17.69,8.161
	c3.553,1.925,6.511,4.93,8.38,8.512c2.529,4.848,3.014,10.486,4.845,15.639c2.191,6.167,6.286,11.577,8.011,17.89
	c1.506,5.512,1.103,11.348,0.546,17.035c-0.852,8.701-2.37,18.062-8.609,24.186c-1.084,1.064-2.339,2.028-3.813,2.394
	c-1.709,0.424-3.529-0.005-5.13-0.74c-4.368-2.003-7.479-6.218-8.869-10.818c-1.39-4.601-1.205-9.556-0.279-14.271
	c0.639-3.254,1.629-6.557,1.072-9.826c-0.558-3.269-3.333-6.482-6.629-6.115c-7.328,0.818-5.069,12.979-5.562,17.802
	C292.951,340.586,292.492,350.014,292.819,359.428z"/>
<path style="fill:#A6B3BD;" d="M23.844,483.347c0.818,7.095,3.217,14.894,9.536,18.222c3.153,1.661,6.829,1.936,10.386,2.156
	c26.849,1.661,53.769,2.012,80.66,1.427c23.817-0.518,47.613-1.77,71.372-3.495c5.942-0.431,11.881-0.893,17.818-1.379
	c5.677-0.465,12.02-1.891,17.691-1.505c4.701,0.32,9.126,1.321,13.991,1.175c5.589-0.168,11.154-0.762,16.734-1.081
	c18.997-1.085,38.013,0.947,56.992,2.325c20.545,1.492,41.137,2.219,61.723,2.945c34.94,1.233,70.303,2.432,104.489-4.893
	c1.411-0.303,2.909-0.669,3.897-1.721c0.996-1.061,1.262-2.594,1.483-4.033c0.802-5.203,1.603-10.407,2.405-15.61
	c1.015-6.589,1.78-14.124-2.574-19.172c-3.346-3.88-8.775-5.094-13.833-5.909c-9.715-1.567-19.534-2.481-29.371-2.735
	c-11.058-0.285-22.118,0.263-33.171,0.689c-36.561,1.409-73.161,1.479-109.741,0.888c-23.918-0.387-47.83-1.056-71.738-1.819
	c-10.774-0.344-23.37,1-33.841-1.612c-9.703-2.42-19.871-1.115-29.851-0.684c-20.9,0.903-41.783,2.199-62.635,3.885
	c-10.68,0.864-21.401,1.831-32.093,1.143c-8.045-0.517-16.048-1.97-24.106-1.751c-7.348,0.2-18.312,2.178-23.527,8.107
	C21.446,464.7,23.048,476.442,23.844,483.347z"/>
<path style="fill:#929FA9;" d="M23.844,492.362c0.818,4.197,3.217,8.81,9.536,10.778c3.153,0.982,6.829,1.145,10.386,1.275
	c26.849,0.982,53.769,1.19,80.66,0.844c23.817-0.306,47.613-1.047,71.372-2.068c5.942-0.255,11.881-0.528,17.818-0.816
	c5.677-0.275,12.02-1.118,17.691-0.89c4.701,0.189,9.126,0.781,13.991,0.695c5.589-0.099,11.154-0.451,16.734-0.639
	c18.997-0.642,38.013,0.56,56.992,1.375c20.545,0.882,41.137,1.312,61.723,1.742c34.94,0.73,70.303,1.439,104.489-2.894
	c1.411-0.179,2.909-0.396,3.897-1.018c0.996-0.628,1.262-1.535,1.483-2.385c0.802-3.078,1.603-6.156,2.405-9.233
	c1.015-3.898,1.78-8.354-2.574-11.34c-3.346-2.295-8.775-3.013-13.833-3.495c-9.715-0.927-19.534-1.467-29.371-1.618
	c-11.058-0.169-22.118,0.156-33.171,0.408c-36.561,0.834-73.161,0.875-109.741,0.525c-23.918-0.229-47.83-0.625-71.738-1.076
	c-10.774-0.203-23.37,0.591-33.841-0.953c-9.703-1.432-19.871-0.66-29.851-0.405c-20.9,0.534-41.783,1.301-62.635,2.298
	c-10.68,0.511-21.401,1.083-32.093,0.676c-8.045-0.306-16.048-1.165-24.106-1.035c-7.348,0.118-18.312,1.288-23.527,4.795
	C21.446,481.332,23.048,488.278,23.844,492.362z"/>
<path style="fill:#FFFFFF;" d="M332.497,197.27c-5.732,0.474-11.472,3.198-14.596,8.027c-3.87,5.982-3.198,13.982-6.726,20.172
	c-6.378-3.099-13.376-4.916-20.456-5.312c-1.587-0.089-3.218-0.101-4.718,0.427c-1.876,0.661-3.359,2.096-4.779,3.49
	c-4.06,3.989-8.119,7.978-12.179,11.967c-3.726-2.494-8.516-2.776-12.973-2.292c-6.648,0.722-14.179,4.161-15.186,10.772
	c-0.612,4.019,1.557,8.101,4.732,10.639c3.175,2.539,7.214,3.75,11.222,4.428c8.883,1.503,18.158,0.624,26.601-2.522
	c1.001-0.373,2.146-0.772,3.093-0.277c1.056,0.553,1.313,1.91,1.588,3.069c1.218,5.136,5.231,9.518,10.24,11.183
	c5.01,1.665,10.846,0.557,14.897-2.829c2.903,2.903,0.283,7.705-2.027,11.099c-4.599,6.759-7.703,15.89-3.563,22.94
	c2.883,4.909,8.871,8.003,10.036,13.576c0.595,2.847-0.234,5.769-0.864,8.608c-1.228,5.533-1.712,11.231-1.436,16.892
	c0.124,2.55,0.486,5.287,2.217,7.163c1.557,1.687,3.911,2.338,6.145,2.864c5.585,1.313,11.844,2.213,16.74-0.777
	c2.837-1.732,4.807-4.549,6.694-7.285c2.482-3.599,4.994-7.256,6.417-11.391c1.423-4.134,1.643-8.88-0.398-12.746
	c-0.697-1.321-1.674-2.646-1.53-4.132c0.154-1.587,1.519-2.734,2.701-3.805c8.256-7.477,11.606-19.925,8.219-30.536
	c-1.887-5.91-5.7-11.531-5.114-17.707c0.738-7.78,7.979-13.002,12.694-19.236c5.907-7.809,8.05-18.34,5.664-27.837
	c-1.973-7.853-8.33-15.614-16.421-15.264c-4.653,0.202-7.773,0.947-12.169-0.797C342.587,197.985,337.557,196.852,332.497,197.27z"
	/>
<g>
	<path style="fill:#EBEBEC;" d="M318.911,256.58c3.299,1.349,6.639,2.615,9.377,4.975c3.034,2.616,5.14,6.495,4.966,10.497
		c-0.227,5.228-4.091,9.56-5.496,14.601c-0.383,1.375-0.579,2.836-0.272,4.23c0.298,1.351,1.048,2.554,1.821,3.701
		c3.414,5.066,7.597,9.75,9.667,15.498c2.737,7.601,1.416,15.99,0.04,23.95c-0.665,3.844-1.458,7.937-4.181,10.731
		c-2.394,2.457-5.865,3.469-9.17,4.387c-0.88,0.244-1.82,0.488-2.689,0.209c-0.613-0.197-1.118-0.633-1.571-1.091
		c-3.758-3.794-4.998-9.497-4.682-14.828s1.988-10.472,3.296-15.649c0.213-0.843,0.414-1.745,0.126-2.565
		c-0.312-0.886-1.124-1.48-1.883-2.033c-3.7-2.697-7.213-5.797-9.57-9.722s-3.448-8.79-2.105-13.167
		c1.412-4.6,12.188-18.088,1.752-18.94c-3.848-0.314-7.044,0.462-10.674-1.468c-5.003-2.66-6.883-9.744-11.992-11.602
		c-6.178-2.246-15.43,1.89-21.779,2.454c-5.805,0.516-11.966-0.087-16.835-3.289c-4.87-3.203-8.004-9.51-6.17-15.042
		c0.254-0.766,0.615-1.53,1.243-2.037c1.087-0.879,2.667-0.764,4.014-0.39c6.41,1.777,11.104,8.163,17.729,8.755
		c4.81,0.43,9.233-2.331,13.675-4.227c6.472-2.762,13.274-3.685,20.203-2.695c2.79,0.399,5.296,0.637,7.447,2.705
		c1.956,1.881,2.755,4.675,4.641,6.631C312.402,253.818,315.636,255.24,318.911,256.58z"/>
	<path style="fill:#EBEBEC;" d="M346.055,243.124c1.367-9.047,14.787-12.405,15.988-21.476c0.351-2.649-0.468-5.309-0.502-7.98
		c-0.034-2.672,1.127-5.752,3.708-6.443c2.139-0.573,4.417,0.818,5.566,2.711c1.149,1.893,1.421,4.175,1.626,6.38
		c0.817,8.785,0.976,17.827-1.721,26.228c-1.935,6.025-6.732,15.513-13.765,16.692C349.533,260.481,345.17,248.983,346.055,243.124z
		"/>
</g>
<path style="fill:#FFFFFF;" d="M386.443,307.494c-0.008,1.932,0.094,4.09,1.483,5.434c1.84,1.78,4.824,1.179,7.317,0.598
	c5.623-1.31,11.415-1.895,17.187-1.734c4.837,0.134,10.243,1.123,13.022,5.084c1.822,2.597,2.11,5.943,2.209,9.114
	c0.24,7.706-0.284,15.436-1.563,23.04c-0.423,2.517-1.05,5.23-3.027,6.845c-1.56,1.274-3.661,1.606-5.654,1.893
	c-10.59,1.524-21.179,3.049-31.769,4.573c-0.939,11.132-1.733,22.275-2.383,33.427c-0.063,1.072-0.117,2.185,0.28,3.182
	c0.713,1.788,2.658,2.723,4.482,3.336c10.599,3.559,22.182,1.701,33.129-0.573c9.831-2.042,20.068-4.633,27.453-11.436
	c5.541-5.104,8.959-12.191,10.764-19.504c1.805-7.314,2.108-14.907,2.217-22.44c0.301-20.822-1.122-42.704-12.1-60.4
	c-1.562-2.518-3.327-4.949-5.576-6.878c-4.064-3.485-9.419-5.089-14.712-5.893c-8.997-1.367-18.169-0.679-27.228,0.188
	c-5.149,0.493-13.233,0.926-14.329,6.97C386.179,290.401,386.477,299.305,386.443,307.494z"/>
<g>
	<path style="fill:#EBEBEC;" d="M401.059,314.057c3.881-0.847,7.781-1.939,11.749-1.742c3.967,0.197,8.129,1.971,9.972,5.49
		c1.268,2.422,1.285,5.317,2.343,7.838c1.058,2.521,4.067,4.709,6.42,3.318c1.055-0.624,1.649-1.791,2.137-2.915
		c3.068-7.057,4.047-15.645,0.006-22.194c-2.271-3.68-5.869-6.327-9.518-8.647c-7.997-5.084-20.195-11.292-29.822-7.032
		c-7.6,3.363-8.276,13.293-8.222,20.495C386.184,316.715,395.182,315.339,401.059,314.057z"/>
	<path style="fill:#EBEBEC;" d="M384.225,391.357c-0.088,3.576-0.555,7.682,2.663,10.062c1.479,1.094,3.392,1.37,5.221,1.561
		c7.658,0.804,15.407,0.739,23.051-0.192c5.598-0.682,11.129-1.826,16.647-2.992c6.04-1.277,12.379-2.735,16.945-6.89
		c3.357-3.055,5.411-7.285,6.895-11.575c4.103-11.864,4.376-24.659,4.608-37.21c0.112-6.054,0.222-12.13-0.496-18.142
		c-0.129-1.077-0.309-2.209-0.995-3.049c-1.496-1.83-4.659-1.189-6.17,0.628c-1.512,1.817-1.838,4.309-2.152,6.651
		c-1.281,9.558-3.342,19.012-6.155,28.235c-1.439,4.719-3.179,9.548-6.652,13.052c-2.528,2.55-5.801,4.214-9.074,5.69
		c-6.252,2.819-13.774,6.005-20.512,3.275c-6.315-2.559-13.418-3.736-19.93-0.568c-5.146,2.504-3.979,5.621-3.887,10.155
		C384.241,390.474,384.236,390.912,384.225,391.357z"/>
</g>
<path style="fill:#333333;" d="M45.775,256.454c-1.778,2.021-1.572,7.383-1.76,9.964c-0.406,5.586-0.552,11.223-1.301,16.776
	c-0.622,4.608-1.037,9.214-1.48,13.844c-0.121,1.263-0.757,3.689-0.049,4.855c0.666,1.097,2.164,0.705,3.384,0.802
	c5.184,0.415,10.599,0.489,15.8,0.44c6.596-0.062,13.165-0.767,19.748-0.805c7.79-0.045,15.607-0.373,23.399-0.54
	c4.252-0.091,8.433,0.177,12.684,0.258c4.594,0.088,9.178-0.242,13.776,0.02c8.475,0.482,17.247,0.307,25.618-1.075
	c3.723-0.614,7.458-0.688,11.219-0.843c3.572-0.148,7.121-0.72,10.695-0.74c5.516-0.031,10.979,0.139,16.491,0.139
	c2.129,0,4.28-0.087,6.406-0.007c1.888,0.071,3.774,0.422,5.536-0.505c5.48-2.884,3.725-11.358,3.273-16.196
	c-0.406-4.343-0.701-8.733-0.843-13.092c-0.103-3.165,0.018-6.502-0.545-9.635c-0.99-5.511-11.166-3.691-14.959-3.808
	c-10.453-0.324-20.81-0.323-31.266,0.098c-6.042,0.243-11.973,1.325-17.997,1.653c-6.357,0.346-12.949,1.701-19.279,0.639
	c-10.97-1.841-22.064-0.316-33.136-0.124c-8.704,0.151-17.314,0.038-26.01-0.286c-3.753-0.14-7.588,0.12-11.318-0.123
	c-1.194-0.078-2.352-0.389-3.539-0.494C48.886,257.541,47.454,257.795,45.775,256.454z"/>
<path style="fill:#2B2B2B;" d="M95.32,266.125c1.269,3.247,3.019,6.679,2.618,10.134c-0.451,3.887,1.061,8.011,2.395,11.645
	c1.203,3.278,5.706,9.002,3.393,12.547c-1.457,2.232-4.058,1.18-6.386,1.211c-4.788,0.064-9.785-0.859-14.51-0.336
	c-9.77,1.08-19.97,1.811-29.822,1.347c-1.736-0.082-3.407-0.447-5.131-0.583c-0.984-0.077-2.037,0.135-3.009-0.015
	c-3.622-0.557-1.5-7.083-1.377-9.77c0.279-6.114,0.986-12.209,0.958-18.333c-0.018-3.97,1.048-7.848,0.899-11.796
	c-0.041-1.098-0.387-3.415,0.686-4.141c0.2-0.135,1.049-0.005,1.322-0.018c1.541-0.073,3.116-0.145,4.649-0.355
	c7.586-1.038,15.106-1.586,22.75-1.936c4.598-0.21,10.41-0.526,14.785,1.256c3.026,1.233,4.318,4.958,5.292,7.817
	C94.981,265.237,95.146,265.679,95.32,266.125z"/>
<path d="M131.687,153.107c11.932,1.968,21.625-3.861,29.208-12.739c7.59-8.887,11.365-19.632,8.338-31.244
	c-2.784-10.679-10.272-20.504-20.57-24.762c-9.201-3.805-19.946-3.109-28.652,1.719c-7.698,4.269-12.365,11.37-15.471,19.377
	c-3.259,8.4-5.027,18.393-2.915,27.287C104.449,144.632,120.61,151.28,131.687,153.107z M111.12,114.427
	c3.207-12.586,11.599-23.405,25.846-22.629c16.199,0.883,29.068,20.354,21.425,35.358c-3.459,6.79-10.251,14.342-17.761,16.598
	c-7.86,2.361-18.518-1.368-24.626-6.491c-3.82-3.204-5.716-7.474-6.348-12.053C109.615,121.567,110.242,117.872,111.12,114.427z"/>
<path d="M495.555,477.667c0.009-5.693-0.137-11.812-2.102-17.222c-2.286-6.295-7.102-10.586-13.662-12.033
	c-8.921-1.967-18.429-2.133-27.524-2.299c-20.02-0.365-39.999-0.511-60.019-1.171c-4.214-0.139-8.427-0.267-12.64-0.394
	c2.183-3.362,3.663-7.244,4.634-11.039c1.539-6.015,2.009-12.3,2.618-18.46c0.186-1.876,0.372-3.751,0.559-5.626
	c8.474-0.205,16.841,0.863,25.387-0.097c8.761-0.985,17.432-2.654,25.849-5.303c16.471-5.185,23.776-19.27,25.564-35.712
	c2.039-18.747,3.473-38.213-0.685-56.772c-2.862-12.775-7.952-25.927-19.218-33.541c-7.523-5.084-16.79-6.684-25.71-7.033
	c-5.639-0.221-11.255,0.223-16.874,0.653c-3.613,0.276-7.416,0.331-10.852,1.475c0.018-2.969,0.045-5.939,0.095-8.909
	c0.15-8.955-1.445-24.597-11.511-25.862c0.685-2.089,1.159-4.249,1.377-6.455c1.686-17.001-10.774-43.059-30.223-34.879
	c-6.1-4.153-14.473-4.111-21.644-2.062c-2.53,0.723-4.905,1.802-7.053,3.226c-8.85,4.918-13.272,13.444-14.681,23.134
	c-8.21-1.156-15.792-5.04-24.51-2.375c-7.175,2.194-13.212,6.958-15.796,13.805c-6.741-1.979-14.58-2.607-21.047-0.524
	c-9.128,2.941-11.789,11.939-8.224,20.41c0.234,0.555,0.483,1.087,0.748,1.599c-0.005,0.014-0.013,0.026-0.018,0.04
	c-1.701,4.6-1.519,9.961-1.726,14.82c-0.199,4.667-0.28,9.341-0.462,14.009c-0.391,9.99-0.944,19.971-1.427,29.957
	c-0.932,19.281-1.881,38.566-2.43,57.862c-0.285,10.001-0.441,20.007-0.386,30.012c0.048,8.628-0.19,17.451,1.17,25.998
	c0.924,5.808,3.124,11.381,6.505,15.608c-11.249-0.08-22.498-0.19-33.74-0.352c-0.847-0.012-1.694-0.03-2.54-0.046
	c0.891-31.865,4.7-63.509,7.536-95.232c2.902-32.462,2.702-64.857,2.959-97.415c0.252-32.003,1.187-64.124-0.549-96.099
	c2.511,0.001,5.058-0.22,7.517-0.147c8.969,0.267,17.927,0.828,26.896,1.108c4.568,0.143,9.136,0.198,13.706,0.139
	c4.085-0.053,6.584,2.103,10.243,3.573c-1.717,12.234,0.915,25.481,1.485,37.643c0.078,1.661,1.227,3.734,3.06,4.02
	c9.457,1.473,22.773,3.888,24.48-8.937c0.833-6.257,0.351-13.037,0.56-19.345c0.133-4.016,0.311-8.022,0.63-12.027
	c0.18-2.262,0.57-4.542,0.587-6.79c6.321-4.967,11.245-11.982,13.526-19.755c4.621-15.745-3.669-30.727-16.777-37.421
	c2.875-5.971,2.969-14.306,4.334-20.151c2.365-10.121,4.997-20.178,7.39-30.292c2.117-8.947,4.411-18.374,4.32-27.627
	c-0.068-6.914-3.21-12.267-10.063-14.17c-7.411-2.058-16.07-2.351-23.697-2.596c-8.36-0.269-17.399-1.133-25.709-0.077
	c-7.205,0.916-12.982,5.051-13.119,12.791c-0.131,7.413,3.802,15.009,5.587,22.096c2.748,10.915,6.139,21.563,9.268,32.37
	c1.567,5.412,3.034,10.876,4.824,16.22c1.528,4.561,3.375,8.452,5.732,12.382c-5.637,3.743-9.754,9.47-12.398,16.005
	c-2.596-0.193-5.303,0.097-7.888,0.138c-5.482,0.087-10.963,0.204-16.445,0.319c-5.153,0.107-10.304,0.178-15.453,0.414
	c-2.102,0.097-4.289,0.065-6.375,0.339c-2.148-13.423-5.505-26.598-11.075-38.729c-4.502-9.805-11.001-18.629-19.799-24.981
	c-10.172-7.344-23.122-10.613-35.497-11.357c-25.48-1.532-50.848,8.81-66.942,28.783c-15.239,18.911-21.829,43.024-25.901,66.55
	c-5.284,30.534-8.049,61.536-10.084,92.435c-2.4,36.432-3.896,72.895-4.219,109.405c-0.158,17.907-0.254,35.822-0.002,53.729
	c0.132,9.372,0.365,18.742,0.735,28.108c0.183,4.641,0.626,9.308,1.016,13.97c-0.015,0.192-0.019,0.385-0.035,0.576
	c-0.388,4.591,1.937,13.371-3.274,15.486c-5.468,2.219-10.331,1.714-14.102,7.196c-3.195,4.646-3.985,10.625-3.969,16.144
	c0.033,11.544,2.36,25.169,12.167,32.486c5.059,3.774,11.22,5.267,17.383,6.027c9.975,1.23,20.09,1.843,30.127,2.289
	c20.876,0.928,41.702-0.525,62.544-1.615c85.638-4.479,172.003-2.431,258.049-3.277c16.909,0,33.678,0.712,50.521,0.465
	c8.476-0.125,17.189,0.264,25.635-0.411c7.402-0.591,15.656-2.753,19.884-9.417C496.35,491.68,495.545,484.192,495.555,477.667z
	 M389.714,384.641c0.421-5.266,0.732-10.532,0.973-15.796c5.553,0.119,11.201-0.801,16.592-1.763
	c5.412-0.965,11.406-1.909,16.041-5.084c9.744-6.674,9.455-22.29,8.493-32.712c-0.508-5.507-1.325-11.603-5.214-15.85
	c-3.409-3.722-8.278-5.3-13.159-5.865c-5.392-0.625-10.833-0.07-16.153,0.876c-1.603,0.285-3.949,0.6-6.155,1.228
	c0.69-0.197-0.198-16.752-0.213-18.44c-0.029-3.348-1.507-8.03,2.148-9.956c2.065-1.089,4.722-0.459,6.992-0.548
	c3.054-0.12,6.093-0.506,9.15-0.572c8.172-0.177,16.809-0.132,24.52,2.929c11.194,4.445,16.279,15.433,19.088,26.42
	c4.016,15.709,3.352,31.89,1.9,47.902c-1.234,13.611-2.454,30.616-17.656,35.641c-7.822,2.586-16.074,4.295-24.256,5.188
	c-8.185,0.893-16.193-0.078-24.297-0.011C388.939,393.701,389.351,389.174,389.714,384.641z M391.237,318.324
	c1.418,0.019,2.842-0.129,3.998-0.213c4.01-0.291,7.991-0.903,12.017-0.999c3.403-0.081,7.416-0.086,10.441,1.72
	c3.485,2.08,3.785,6.787,4.1,10.453c0.539,6.282,1.901,20.294-4.472,24.292c-3.541,2.221-8.893,2.497-12.917,3.077
	c-4.466,0.645-8.865,0.861-13.31,0.964C391.438,344.52,391.382,331.424,391.237,318.324z M293.311,161.23
	c-0.515,6.441-0.661,12.926-0.918,19.381c-0.116,2.908,1.21,9.979-1.528,11.656c-2.064,1.263-6.351,0.52-9.641-0.105
	c-0.563-6.627-1.468-13.225-1.879-19.855c-0.161-2.6-0.07-5.214-0.292-7.81c-0.192-2.244-1.095-3.779,1.085-4.5
	c1.732-0.574,4.539,0.027,6.447-0.267c2.397-0.369,4.746-1.035,6.995-1.942C293.476,158.949,293.401,160.107,293.311,161.23z
	 M262.416,48.992c-2.392-7.771-3.738-15.81-6.039-23.603c-0.981-3.322-5.409-11.692-1.96-14.074
	c2.468-1.705,6.928-1.131,9.719-1.025c3.337,0.127,6.656,0.295,9.997,0.329c7.934,0.082,15.686,0.721,23.545,1.76
	c1.648,0.218,4.388,0.169,5.798,1.142c2.078,1.433,1.29,5.043,1.122,7.267c-0.588,7.793-2.525,15.447-4.397,23.011
	c-2.359,9.532-4.737,19.065-6.951,28.633c-0.913,3.948-1.564,7.927-2.31,11.907c-0.487,2.599-1.337,5.186-1.871,7.8
	c-3.382-0.516-6.91-0.519-10.493,0.085c-1.37,0.231-2.682,0.558-3.942,0.967C271.3,78.32,266.907,63.585,262.416,48.992z
	 M262.41,123.224c0.729-7.871,5.624-14.987,12.298-19.105c0.615-0.307,1.245-0.596,1.906-0.841
	c15.753-5.844,34.227,8.206,30.419,25.08c-3.161,14.006-19.352,27.571-33.936,20.283C264.22,144.203,261.567,132.328,262.41,123.224
	z M214.936,122.451c5.473,0.183,10.947,0.089,16.422,0.041c5.158-0.046,10.316-0.093,15.474-0.116
	c1.967-0.009,4.049,0.142,6.113,0.151c-1.075,7.148-0.991,16.31,2.932,21.479c-1.109,0.011-2.217,0.025-3.316-0.002
	c-5.935-0.147-11.781-0.596-17.722-0.456c-5.733,0.135-11.463-0.208-17.194,0.195c-1.59,0.112-3.264,0.248-4.885,0.549
	c-0.479-7.266-1.089-14.634-1.999-21.983C212.132,122.401,213.537,122.404,214.936,122.451z M249.481,238.661
	c5.829-1.365,12.974-0.47,18.18,2.509c2.26,1.294,5.01,0.076,5.768-2.347c2.091-6.68,9.859-10.943,16.665-10.428
	c7.633,0.577,14.165,4.833,22.051,4.008c2.809-0.294,5.54-2.239,5.405-5.406c-0.379-8.904,1.455-16.954,9.659-21.792
	c0.541-0.319,1.119-0.621,1.711-0.911c0.338-0.119,0.678-0.235,1.03-0.33c4.052-1.101,12.651-1.965,15.312,2.125
	c1.656,2.545,4.641,3.282,7.342,1.925c13.191-6.627,18.566,14.792,16.984,24.174c-1.739,10.311-11.766,14.133-16.917,22.152
	c-2.578,4.014-2.651,8.385-0.691,12.635c2.511,5.443,4.536,10.732,5.55,16.696c0.943,5.548,0.187,11.084-2,16.265
	c-2.237,5.299-6.051,9.151-9.077,13.869c-2.118,3.302-2.153,7.42-0.15,10.842c1.267,2.164,2.118,2.009,1.916,4.524
	c-0.153,1.908-0.843,3.995-1.572,5.739c-2.997,7.172-12.224,17.52-20.873,13.012c-9.579-4.993-6.425-17.437-3.979-25.632
	c1.289-4.318,2.749-7.419,0.293-11.671c-2.687-4.653-8.547-6.958-10.573-11.85c-1.903-4.597,0.605-9.26,2.844-13.202
	c2.574-4.532,5.358-8.906,6.655-14.015c1.066-4.197-2.583-7.114-6.483-6.483c-9.797,1.585-19.814,2.85-23.194-8.763
	c-0.626-2.15-2.721-3.163-4.836-2.746c-6.808,1.343-13.59,2.942-20.518,3.546c-6.364,0.555-15.125,0.886-19.761-4.427
	C241.647,247.436,242.418,240.315,249.481,238.661z M242.715,360.906c0.519-17.962,1.51-35.905,2.073-53.865
	c0.271-8.655,0.507-17.312,0.652-25.971c0.057-3.438-1.346-14.606,0.52-17.204c2.463-3.414,12.398,0.205,15.622,0.699
	c2.026,0.31,23.553-1.818,23.27-2.625c1.975,5.639,5.016,10.398,11.085,12.763c3.755,1.463,7.74,1.789,11.737,1.614
	c-4.189,7.74-8.742,14.895-6.729,24.126c0.984,4.512,3.38,8.772,6.741,11.944c1.171,1.105,4.562,2.496,5.186,3.852
	c0.917,1.993-0.989,5.088-1.411,7.293c-1.927,10.084-2.323,21.835,5.871,29.395c8.457,7.802,19.829,5.862,28.099-1.036
	c6.78-5.655,14.482-17.175,12.319-26.629c-0.346-1.514-3.125-4.213-3.153-5.391c-0.029-1.22,4.498-4.891,5.345-5.952
	c8.459-10.602,10.662-24.581,7.685-37.44c-0.77-3.328-1.761-6.604-3.076-9.759c-1.452-3.483-3.637-5.001-0.793-8.082
	c3.897-4.221,9.369-8.505,12.551-13.582c3.199,1.375,4.976,3.556,5.61,7.736c0.722,4.757,0.205,9.767,0.065,14.551
	c-0.137,4.681-0.275,9.368-0.391,14.058c0.001,1.514-0.04,3.02-0.103,4.504c-0.235,11.275-0.285,22.56,0.229,33.81
	c1.545,33.784-1.133,68.041-5.515,101.518c-1.154,8.816-3.141,17.632-11.488,22.291c-0.474,0.264-0.963,0.513-1.489,0.646
	c-1.385,0.352-2.761-0.156-4.149-0.191c-1.835-0.047-3.67-0.092-5.505-0.136c-3.529-0.085-7.058-0.166-10.588-0.242
	c-7.058-0.153-14.117-0.288-21.176-0.405c-14.119-0.235-28.24-0.398-42.361-0.488c-5.664-0.036-11.327-0.049-16.991-0.061
	c-1.028-0.002-2.063-0.005-3.072-0.199c-0.912-0.176-1.787-0.504-2.656-0.832c-5.644-2.125-9.826-4.452-11.979-10.35
	c-1.895-5.192-1.924-10.862-2.114-16.316C242.009,396.942,242.194,378.914,242.715,360.906z M56.11,165.692
	c2.954-24.139,5.957-49.774,16.285-72.079c10.33-22.311,28.497-38.852,53.151-43.226c23.21-4.118,48.411,2.542,60.724,23.774
	c12.002,20.697,14.338,47.551,16.041,70.858c1.746,23.902,1.66,47.912,1.429,71.887c-4.303-0.478-9.099,0.295-13.147,0.351
	c-6.943,0.096-13.855-0.269-20.793-0.385c-14.054-0.235-28.101,0.503-42.155,0.416c-13.706-0.085-27.352-1.294-41.07-1.201
	c-11.592,0.079-23.659-0.247-35.327,0.789C52.482,199.778,54.028,182.707,56.11,165.692z M50.871,222.131
	c12.104,0.876,24.674-0.442,36.703-0.463c13.718-0.024,27.365,1.248,41.074,1.341c13.718,0.093,27.433-0.558,41.151-0.289
	c6.608,0.129,13.201,0.533,19.812,0.55c4.246,0.011,9.472,0.686,14.064,0.069c-0.048,4.717-0.096,9.432-0.13,14.144
	c-0.04,5.392-0.056,10.785-0.067,16.178c-4.253-0.209-8.944,0.572-12.632,0.664c-6.723,0.167-13.441,0.215-20.166,0.208
	c-14.378-0.015-28.756-0.128-43.134-0.266c-14.024-0.136-28.049-0.297-42.073-0.417c-7.006-0.06-14.012-0.138-21.018-0.084
	c-4.803,0.037-10.398-0.314-15.462,0.427C49.537,243.502,50.141,232.812,50.871,222.131z M48.741,259.057
	c5.129,0.812,10.813,0.487,15.714,0.585c6.672,0.133,13.344,0.177,20.017,0.255c14.358,0.168,28.716,0.382,43.074,0.568
	c14.043,0.182,28.086,0.339,42.13,0.404c7.059,0.033,14.113,0.034,21.17-0.146c3.359-0.086,6.717-0.194,10.076-0.266
	c0.882-0.019,1.724-0.007,2.543-0.008c-0.021,12.184-0.06,24.367-0.296,36.543c-3.17-0.287-6.49-0.041-9.265,0.093
	c-6.365,0.307-12.648,0.793-19.028,0.769c-16.5-0.06-33.001-0.26-49.5,0.045c-16.017,0.296-32.001,1.218-48.025,1.35
	c-6.368,0.052-12.64-0.217-18.996-0.475c-3.76-0.152-7.54-0.164-11.102,0.773C47.602,286.051,48.085,272.555,48.741,259.057z
	 M47.133,304.223c4.237-0.108,8.573,0.365,12.731,0.632c6.179,0.397,12.29,0.554,18.485,0.557
	c15.691,0.007,31.343-0.849,47.027-1.051c15.492-0.199,30.983,0.2,46.474,0.283c6.602,0.035,13.092-0.213,19.677-0.622
	c3.941-0.245,7.686,0.03,11.469,0.323c-0.289,10.749-0.777,21.492-1.586,32.225c-26.86,0.001-53.618-1.686-80.482-1.96
	c-13.567-0.139-27.139,0.016-40.706,0.064c-5.839,0.02-11.664,0.059-17.5,0.259c-5.578,0.191-10.662-0.465-16.057-1.349
	C46.756,323.794,46.904,314.008,47.133,304.223z M46.564,351.562c0.006-4.239,0.025-8.476,0.054-12.713
	c7.973,3.971,19.45,2.087,27.698,2.117c14.184,0.049,28.372,0.005,42.556,0.182c28.036,0.35,55.968,2.165,83.999,2.217
	c-2.827,32.787-7.422,65.564-6.703,98.528c-6.151-0.156-12.302-0.291-18.455-0.167c-10.205,0.206-20.387,1.277-30.583,1.767
	c-20.046,0.963-40.049,1.901-60.077,3.174c-9.172,0.583-18.184,0.573-27.285-0.789c-2.45-0.367-6.095-0.116-8.41-1.344
	c0.002-0.081,0.011-0.159,0.01-0.242c-0.062-7.553-1.26-15.192-1.614-22.762c-0.375-8.019-0.646-16.043-0.832-24.069
	C46.565,382.163,46.543,366.863,46.564,351.562z M480.218,493.906c-6.691,2.902-15.135,1.541-22.219,1.634
	c-9.145,0.12-18.255,0.427-27.405,0.229c-53.612-1.161-107.915,0.473-161.767,0.317c-22.378-0.065-44.756-0.129-67.134-0.194
	c-21.165-0.061-41.921,1.914-63.091,3.032c-19.486,1.029-38.993,2.462-58.514,1.805c-9.711-0.327-19.405-1.027-29.079-1.914
	c-5.593-0.512-12.016-1.036-16.518-4.807c-7.106-5.952-8.534-21.183-6.365-29.687c1.675-6.568,7.093-5.488,12.933-5.756
	c9.532-0.438,19.076-0.678,28.617-0.455c24.555,0.573,47.903-2.005,72.453-2.963c9.595-0.374,19.16-1.263,28.749-1.669
	c9.734-0.413,19.479-0.014,29.211,0.242c38.399,1.009,76.84,0.581,115.247,1.18c39.008,0.608,78.048,3.028,117.052,3.068
	c9.146,0.01,18.298-0.119,27.438,0.29c4.34,0.195,8.67,0.517,12.985,1.022c3.01,0.352,6.539,0.368,8.778,2.707
	c3.473,3.628,3.199,9.904,3.221,14.545C484.836,482.285,486.645,491.118,480.218,493.906z"/>
<g>
</g>
<g>
</g>
<g>
</g>
<g>
</g>
<g>
</g>
<g>
</g>
<g>
</g>
<g>
</g>
<g>
</g>
<g>
</g>
<g>
</g>
<g>
</g>
<g>
</g>
<g>
</g>
<g>
</g>
</svg>
