<?xml version="1.0" encoding="iso-8859-1"?>
<!-- Generator: Adobe Illustrator 19.0.0, SVG Export Plug-In . SVG Version: 6.00 Build 0)  -->
<svg version="1.1" id="Layer_1" xmlns="http://www.w3.org/2000/svg" xmlns:xlink="http://www.w3.org/1999/xlink" x="0px" y="0px"
	 viewBox="0 0 512 512" style="enable-background:new 0 0 512 512;" xml:space="preserve">
<g>
	<path style="fill:#F7931E;" d="M371.209,135.93h-23.136h-16.15v87.877h31.385V183.9c0-8.844,7.372-16.013,16.215-16.013
		c8.843,0,16.215,7.168,16.215,16.013v160.127c0,8.843-7.372,16.013-16.215,16.013c-8.843,0-16.215-7.169-16.215-16.013v-40.711
		h-31.385v87.877h16.15h34.157c25.353,0,45.939-19.681,45.939-45.033V192.789C428.17,161.348,402.649,135.93,371.209,135.93z"/>
	<path style="fill:#F7931E;" d="M332.06,504.154H83.863V111.843h48.039c8.843,0,16.013,7.169,16.013,16.013v36.029
		c0,15.476,12.546,28.022,28.022,28.022l0,0c15.476,0,28.022-12.546,28.022-28.022v-36.029c0-8.843,7.169-16.013,16.013-16.013l0,0
		c8.843,0,16.013,7.169,16.013,16.013v8.006c0,8.843,7.169,16.013,16.013,16.013l0,0c8.843,0,16.013-7.169,16.013-16.013v-8.006
		c0-8.843,7.169-16.013,16.013-16.013h48.038v392.311H332.06z"/>
</g>
<g>
	<rect x="332.061" y="135.865" style="fill:#F15A24;" width="16.013" height="88.066"/>
	<rect x="332.061" y="303.993" style="fill:#F15A24;" width="16.013" height="88.066"/>
	<rect x="83.86" y="472.132" style="fill:#F15A24;" width="248.201" height="32.025"/>
	<rect x="284.021" y="135.865" style="fill:#F15A24;" width="23.84" height="304.244"/>
	<rect x="227.979" y="135.865" style="fill:#F15A24;" width="23.391" height="304.244"/>
	<rect x="171.936" y="135.865" style="fill:#F15A24;" width="24.019" height="304.244"/>
	<rect x="115.893" y="135.865" style="fill:#F15A24;" width="23.542" height="304.244"/>
</g>
<path style="fill:#FFFFFF;" d="M83.983,95.829c0-30.137,20.781-55.345,48.819-62.168c9.958-15.561,27.324-25.903,47.167-25.903
	c14.307,0,27.306,5.407,37.21,14.23c5.294-3.87,11.754-6.224,18.812-6.224c11.899,0,22.09,6.566,27.611,16.199
	c33.659,1.909,68.319,29.729,68.319,63.865v16.039h-47.901c-8.843,0-15.915,7.143-15.915,15.987v8.006
	c0,8.843-7.023,16.807-15.866,16.807h0.066c-8.843,0-15.584-7.963-15.584-16.807v-8.006c0-8.843-7.72-15.987-16.564-15.987h0.038
	c-8.843,0-15.905,7.143-15.905,15.987v36.029c0,15.476-12.747,27.492-28.224,27.492h0.115c-15.476,0-28.384-12.016-28.384-27.492
	v-36.029c0-8.843-7.054-15.987-15.897-15.987H83.983V95.829z"/>
<g>
	<path style="fill:#F2F2F2;" d="M196.097,111.843c-8.844,0-15.867,7.169-15.867,16.013v36.029c0,11.159-6.717,20.715-16.158,25.222
		c3.652,1.744,7.787,2.801,12.103,2.801c15.476,0,28.117-12.547,28.117-28.022v-36.029c0-4.034,1.448-7.674,3.91-10.491
		C205.265,114.007,200.907,111.843,196.097,111.843z"/>
	<path style="fill:#F2F2F2;" d="M263.599,31.964c-5.522-9.633-15.751-16.199-27.65-16.199c-4.233,0-8.194,0.929-11.876,2.442
		c6.574,2.741,11.954,7.614,15.477,13.757c33.659,1.909,68.311,29.729,68.311,63.865v16.039h24.062V95.829
		C331.923,61.693,297.258,33.874,263.599,31.964z"/>
	<path style="fill:#F2F2F2;" d="M242.999,127.855v8.006c0,4.034-1.046,7.674-3.508,10.49c2.934,3.357,7.497,5.523,12.306,5.523
		c8.843,0,16.31-7.169,16.31-16.013v-8.006c0-8.844,7.071-15.987,15.914-15.987h-24.019
		C251.159,111.868,242.999,119.011,242.999,127.855z"/>
</g>
<path d="M339.906,96.176h-15.692c0-30.339-32.2-54.572-60.99-56.204l-4.247-0.327l-2.115-3.735
	c-4.398-7.673-12.203-12.276-20.877-12.276c-5.068,0-9.973,1.618-14.188,4.7l-5.118,3.737l-4.734-4.22
	c-8.861-7.894-20.227-12.243-32.005-12.243c-16.484,0-31.658,8.331-40.589,22.285l-1.696,2.65l-3.057,0.916
	c-25.252,6.145-42.888,28.562-42.888,54.716H76.017c0-32.431,21.174-60.301,51.867-69.166C139.887,10.093,159.12,0,179.939,0
	c13.657,0,26.886,4.352,37.839,12.436c5.638-2.941,11.832-4.494,18.206-4.494c12.734,0,24.709,6.237,32.17,16.54
	c17.05,1.895,34.178,9.762,47.545,21.645C331.309,60.005,339.906,77.345,339.906,96.176z"/>
<polygon points="139.43,447.685 108.045,447.685 108.045,135.93 123.737,135.93 123.737,431.993 139.43,431.993 "/>
<polygon points="195.922,447.685 163.491,447.685 163.491,215.438 179.184,215.438 179.184,431.993 195.922,431.993 "/>
<polygon points="251.369,447.685 219.984,447.685 219.984,168.361 235.676,168.361 235.676,431.993 251.369,431.993 "/>
<polygon points="307.861,447.685 276.477,447.685 276.477,152.668 292.169,152.668 292.169,431.993 307.861,431.993 "/>
<rect x="116.416" y="464.422" width="183.078" height="15.692"/>
<path d="M371.209,128.014h-31.303v-24.019h-55.884c-13.156,0-23.86,10.702-23.86,23.859v8.006c0,4.504-3.664,8.167-8.166,8.167
	s-8.166-3.664-8.166-8.167v-8.005c0-13.155-10.703-23.86-23.86-23.86c-13.155,0-23.859,10.703-23.859,23.86v36.028
	c0,5.389-2.099,10.456-5.909,14.268c-3.81,3.811-8.878,5.909-14.266,5.909c-11.125,0-20.176-9.05-20.176-20.176v-36.028
	c0-13.155-10.703-23.86-23.859-23.86H76.017V512h263.89V399.911h42.324c29.64,0,53.753-24.114,53.753-53.753v-153.37
	C435.982,157.073,406.925,128.014,371.209,128.014z M339.906,296.149v-64.371h32.026v-47.879c0-4.504,3.664-8.167,8.166-8.167
	s8.166,3.664,8.166,8.167v160.127c0,4.504-3.664,8.167-8.166,8.167s-8.166-3.664-8.166-8.167v-47.878L339.906,296.149
	L339.906,296.149z M91.709,496.308v-16.192h16.336v-15.692H91.709V119.688h40.192c4.503,0,8.166,3.664,8.166,8.167v36.028
	c0,19.778,16.09,35.869,35.869,35.869c9.581,0,18.588-3.731,25.363-10.506c6.775-6.775,10.506-15.782,10.506-25.363v-36.028
	c0-4.504,3.664-8.167,8.167-8.167c4.503,0,8.166,3.664,8.166,8.167v8.005c0,13.155,10.703,23.86,23.859,23.86
	s23.859-10.703,23.859-23.86v-8.006c0-4.503,3.664-8.166,8.167-8.166h40.191v344.735h-16.353v15.692h16.353v16.192L91.709,496.308
	L91.709,496.308z M420.29,346.159c0,20.987-17.073,38.06-38.06,38.06h-42.324v-72.378h16.334v32.185
	c0,13.155,10.703,23.86,23.859,23.86c13.155,0,23.859-10.703,23.859-23.86V183.899c0-13.155-10.703-23.86-23.859-23.86
	c-13.155,0-23.859,10.703-23.859,23.86v32.186h-16.334v-72.379h31.303c27.063,0,49.082,22.019,49.082,49.082L420.29,346.159
	L420.29,346.159z"/>
<g>
</g>
<g>
</g>
<g>
</g>
<g>
</g>
<g>
</g>
<g>
</g>
<g>
</g>
<g>
</g>
<g>
</g>
<g>
</g>
<g>
</g>
<g>
</g>
<g>
</g>
<g>
</g>
<g>
</g>
</svg>
