<?xml version="1.0" encoding="iso-8859-1"?>
<!-- Generator: Adobe Illustrator 19.0.0, SVG Export Plug-In . SVG Version: 6.00 Build 0)  -->
<svg version="1.1" id="Layer_1" xmlns="http://www.w3.org/2000/svg" xmlns:xlink="http://www.w3.org/1999/xlink" x="0px" y="0px"
	 viewBox="0 0 511.991 511.991" style="enable-background:new 0 0 511.991 511.991;" xml:space="preserve">
<polygon style="fill:#E6E9ED;" points="21.328,255.993 21.328,341.319 42.687,448.004 42.672,511.986 149.324,511.986 
	149.355,448.066 170.667,341.319 170.667,255.993 "/>
<polygon style="fill:#FFCE54;" points="25.61,362.646 42.687,448.004 42.672,511.986 149.324,511.986 149.355,448.066 
	166.402,362.646 "/>
<g>
	<rect x="245.324" y="67.749" style="fill:#434A54;" width="21.343" height="51.56"/>
	<path style="fill:#434A54;" d="M159.995,74.654c0-5.89-4.781-10.655-10.671-10.655l0,0H95.997l0,0l0,0
		c-5.891,0-10.672,4.766-10.672,10.655c0,5.891,4.781,10.672,10.672,10.672l0,0l0,0h42.67v40.89h21.328V74.654L159.995,74.654z"/>
</g>
<g>
	<path style="fill:#FFCE54;" d="M127.997,309.32c0,5.891-4.781,10.672-10.671,10.672c-5.891,0-10.656-4.781-10.656-10.672
		s4.766-10.672,10.656-10.672C123.215,298.648,127.997,303.43,127.997,309.32z"/>
	<path style="fill:#FFCE54;" d="M127.997,341.319c0,5.891-4.781,10.672-10.671,10.672c-5.891,0-10.656-4.781-10.656-10.672
		c0-5.89,4.766-10.671,10.656-10.671C123.215,330.648,127.997,335.43,127.997,341.319z"/>
</g>
<polygon style="opacity:0.2;fill:#FFFFFF;enable-background:new    ;" points="149.324,255.993 149.324,341.319 128.029,448.066 
	127.997,511.986 149.324,511.986 149.355,448.066 170.667,341.319 170.667,255.993 "/>
<path style="fill:#CCD1D9;" d="M149.434,222.853l-20.609-5.515l-15.484,57.795l0,0c-0.234,0.875-0.359,1.797-0.359,2.75
	c0,5.891,4.766,10.672,10.656,10.672c4.938,0,9.078-3.359,10.297-7.906h0.016L149.434,222.853z"/>
<polygon style="fill:#434A54;" points="168.48,234.166 106.67,217.604 133.012,119.309 194.824,135.872 "/>
<path style="fill:#656D78;" d="M95.997,106.654c-17.671,0-32,14.39-32,31.999c0,17.624,14.328,31.905,32,31.905l138.668,0.094
	v-63.998C234.665,106.654,95.997,106.654,95.997,106.654z"/>
<path style="fill:#ED5564;" d="M277.322,106.654h-63.999v63.998c200.214,42.671,63.999,341.334,63.999,341.334h170.666
	C447.987,511.986,502.176,138.653,277.322,106.654z"/>
<rect x="255.993" y="447.993" style="fill:#434A54;" width="234.67" height="63.998"/>
<path style="fill:#FFCE54;" d="M255.993,74.654c-17.64,0-31.999-14.343-31.999-31.999c0-17.64,14.359-31.999,31.999-31.999
	c17.641,0,31.998,14.359,31.998,31.999C287.991,60.311,273.634,74.654,255.993,74.654z"/>
<path style="fill:#656D78;" d="M255.993,0c-23.562,0-42.671,19.094-42.671,42.655c0,23.562,19.109,42.671,42.671,42.671
	s42.67-19.108,42.67-42.671C298.664,19.094,279.556,0,255.993,0z M255.993,63.999c-11.765,0-21.328-9.578-21.328-21.344
	c0-11.749,9.562-21.327,21.328-21.327c11.766,0,21.328,9.578,21.328,21.327C277.322,54.421,267.759,63.999,255.993,63.999z"/>
<path style="fill:#F6BB42;" d="M159.995,501.315c0-5.891-4.781-10.672-10.671-10.672l0,0H42.672l0,0l0,0
	c-5.891,0-10.672,4.781-10.672,10.672s4.781,10.671,10.672,10.671l0,0l0,0h106.653l0,0
	C155.215,511.986,159.995,507.206,159.995,501.315z"/>
<g>
</g>
<g>
</g>
<g>
</g>
<g>
</g>
<g>
</g>
<g>
</g>
<g>
</g>
<g>
</g>
<g>
</g>
<g>
</g>
<g>
</g>
<g>
</g>
<g>
</g>
<g>
</g>
<g>
</g>
</svg>
